# xmcd
# Copyright (C) 1995-1998 Ti Kan
#
# Track frame offsets:
#       150
#       17426
#       32869
#       44308
#       60610
#       84153
#       102573
#       115863
#       123946
#       138878
#       153995
#
# Disc length: 2378 seconds
#
# Revision: 0
# Processed by: cddbd v1.5.2PL0 Copyright (c) Steve Scherf et al.
# Submitted via: CD-Import v1.0
#
DISCID=8209480b
DTITLE=Polaroid Fame - We Live Your Life
DYEAR=09
DGENRE=
TTITLE0=We Live Your Life
TTITLE1=Face Off
TTITLE2=Wanna Know
TTITLE3=Caught On Film
TTITLE4=Bowies New Jacket
TTITLE5=Times On File
TTITLE6=Girl Rock
TTITLE7=Where Do We Go
TTITLE8=When I'm With You
TTITLE9=Facing Extiction
TTITLE10=Miss You
EXTD=
EXTT0=
EXTT1=
EXTT2=
EXTT3=
EXTT4=
EXTT5=
EXTT6=
EXTT7=
EXTT8=
EXTT9=
EXTT10=
PLAYORDER=
